<svg xmlns="http://www.w3.org/2000/svg" viewBox="0 0 400 400" fill="none"><rect width="400" height="400" fill="#f3f4f6"/><g opacity="0.4"><path d="M200 140c-22 0-40 18-40 40s18 40 40 40 40-18 40-40-18-40-40-40zm0 64c-13.3 0-24-10.7-24-24s10.7-24 24-24 24 10.7 24 24-10.7 24-24 24z" fill="#9ca3af"/><path d="M280 100H120c-11 0-20 9-20 20v160c0 11 9 20 20 20h160c11 0 20-9 20-20V120c0-11-9-20-20-20zm4 180c0 2.2-1.8 4-4 4H120c-2.2 0-4-1.8-4-4V120c0-2.2 1.8-4 4-4h160c2.2 0 4 1.8 4 4v160z" fill="#9ca3af"/><path d="M140 250l30-40 25 30 35-50 50 60H140z" fill="#9ca3af"/></g><text x="200" y="320" font-family="system-ui, -apple-system, sans-serif" font-size="16" fill="#6b7280" text-anchor="middle">No image</text></svg>
